# xmcd
#
# Track frame offsets: 
#        150
#        49504
#        92140
#        137664
#        167844
#        187028
#        226880
#        258836
#        288712
#
# Disc length: 4317 seconds
#
# Revision: 3
# Processed by: cddbd v1.5.2PL0 Copyright (c) Steve Scherf et al.
# Submitted via: ExactAudioCopy v0.99pb5
#
DISCID=7b10db09
DTITLE=Kabib Koite - Foly cd1
DYEAR=2003
DGENRE=World
TTITLE0=Muso Ko
TTITLE1=Fatma
TTITLE2=Ma Ya
TTITLE3=Sirata
TTITLE4=Batoumambe
TTITLE5=Bitile
TTITLE6=Imada
TTITLE7=Kanawa
TTITLE8=Wari
EXTD=
EXTT0=
EXTT1=
EXTT2=
EXTT3=
EXTT4=
EXTT5=
EXTT6=
EXTT7=
EXTT8=
PLAYORDER=
